#!OML:ASF X:\für Bonn\!DataBase\2005_08_10_Bjorn_Final\c3d\bjorn.ASF
:FULLY-SPECIFIED
:DEGREES
46
root -17.2121 17.922 22.0357 175.396 47.288 -535.468
lowerback 1.99014 -0.990839 -0.125052
upperback 15.6671 0.173948 1.36389
thorax 16.2797 0.604422 1.82324
lowerneck 4.25242 3.26517 -1.13326
upperneck -8.50727 4.15385 -2.88556
head -3.45274 2.25816 -0.927334
rclavicle -7.77745e-015 1.55301e-014
rhumerus -15.2605 8.4413 -93.3187
rradius 51.3047
rwrist -0.879694
rhand -19.2637 19.1188
rfingers 7.12502
rthumb 7.05063 -10.7438
lclavicle -7.77745e-015 1.55301e-014
lhumerus -21.0576 6.09001 82.6935
lradius 25.7517
lwrist -27.3195
lhand -34.9281 -19.0382
lfingers 7.12502
lthumb -8.0754 10.7875
rfemur -5.26203 -2.5897 24.4501
rtibia 47.1712
rfoot -31.8363 8.1879
rtoes -9.17633
lfemur -30.4759 11.8391 -1.9428
ltibia 34.3169
lfoot 12.2309 18.0144
ltoes -24.8802
47
root -17.1764 17.886 21.9936 175.584 47.2331 -535.29
lowerback 2.10483 -0.968774 -0.226189
upperback 15.7518 0.243453 1.29428
thorax 16.3148 0.638604 1.8124
lowerneck 4.44617 3.26146 -1.18046
upperneck -8.78074 4.153 -2.71613
head -3.5905 2.25748 -0.874429
rclavicle -2.23881e-014 8.89561e-015
rhumerus -15.3467 8.3087 -93.3195
rradius 51.6512
rwrist -0.89078
rhand -19.2778 19.0562
rfingers 7.12502
rthumb 7.03695 -10.8068
lclavicle -2.23881e-014 8.89561e-015
lhumerus -20.8646 5.92656 82.5878
lradius 26.2147
lwrist -27.1006
lhand -35.289 -18.9286
lfingers 7.12502
lthumb -8.42367 10.8834
rfemur -5.31389 -2.71816 24.5216
rtibia 47.5653
rfoot -32.1849 8.31994
rtoes -9.53947
lfemur -30.3582 11.6967 -1.63322
ltibia 34.0124
lfoot 12.3481 17.8824
ltoes -24.8662
48
root -17.1432 17.8524 21.9492 175.793 47.1581 -535.107
lowerback 2.23021 -0.953663 -0.302881
upperback 15.818 0.299149 1.21756
thorax 16.3186 0.669382 1.77688
lowerneck 4.75254 3.26483 -1.17725
upperneck -9.1034 4.15985 -2.58107
head -3.76665 2.2608 -0.845422
rclavicle -3.24516e-014 1.33186e-014
rhumerus -15.4422 8.15358 -93.338
rradius 51.9552
rwrist -0.912506
rhand -19.294 19.0449
rfingers 7.12502
rthumb 7.02133 -10.8186
lclavicle -3.24516e-014 1.33186e-014
lhumerus -20.705 5.68739 82.4693
lradius 26.7133
lwrist -26.7581
lhand -35.6384 -18.8296
lfingers 7.12502
lthumb -8.76091 10.9686
rfemur -5.38217 -2.83845 24.5928
rtibia 47.9319
rfoot -32.4827 8.4307
rtoes -9.84999
lfemur -30.2949 11.5378 -1.34484
ltibia 33.7484
lfoot 12.4141 17.7025
ltoes -25.0677
49
root -17.1103 17.8209 21.9036 176.031 47.0795 -534.873
lowerback 2.36741 -0.943977 -0.35847
upperback 15.9022 0.347326 1.17186
thorax 16.3389 0.698211 1.7647
lowerneck 5.05539 3.2694 -1.25246
upperneck -9.43666 4.1653 -2.4257
head -3.94972 2.26514 -0.795913
rclavicle -9.72554e-014 6.43068e-014
rhumerus -15.5263 8.03235 -93.3011
rradius 52.2827
rwrist -0.962814
rhand -19.2742 19.0087
rfingers 7.12502
rthumb 7.0405 -10.8542
lclavicle -9.72554e-014 6.43068e-014
lhumerus -20.4917 5.57594 82.386
lradius 27.2031
lwrist -26.5618
lhand -35.9682 -18.6791
lfingers 7.12502
lthumb -9.07909 11.1055
rfemur -5.41838 -2.95712 24.7013
rtibia 48.2672
rfoot -32.7744 8.53424
rtoes -10.26
lfemur -30.2373 11.4292 -1.0398
ltibia 33.5263
lfoot 12.4507 17.3837
ltoes -25.3393
50
root -17.0786 17.7903 21.8564 176.238 47.0073 -534.721
lowerback 2.49831 -0.916996 -0.443989
upperback 15.9659 0.420317 1.09313
thorax 16.3358 0.736432 1.73328
lowerneck 5.43341 3.26481 -1.20749
upperneck -9.80274 4.16108 -2.33914
head -4.15679 2.26354 -0.791931
rclavicle 3.93594e-014 -3.26007e-014
rhumerus -15.65 7.86646 -93.2931
rradius 52.613
rwrist -1.01734
rhand -19.2648 19.0018
rfingers 7.12502
rthumb 7.04958 -10.8608
lclavicle 3.93594e-014 -3.26007e-014
lhumerus -20.3264 5.24106 82.2839
lradius 27.7785
lwrist -26.1134
lhand -36.2258 -18.519
lfingers 7.12502
lthumb -9.32768 11.2546
rfemur -5.46975 -3.02696 24.7497
rtibia 48.5769
rfoot -33.0305 8.64517
rtoes -10.5347
lfemur -30.2248 11.3034 -0.80086
ltibia 33.3423
lfoot 12.4428 17.0556
ltoes -25.5491
51
root -17.0473 17.7618 21.8076 176.468 46.9188 -534.518
lowerback 2.63612 -0.90783 -0.493107
upperback 16.0567 0.471075 1.03374
thorax 16.3647 0.769499 1.70252
lowerneck 5.699 3.26975 -1.22695
upperneck -10.1139 4.17211 -2.21804
head -4.32552 2.26911 -0.761918
rclavicle -2.76311e-014 -1.39149e-014
rhumerus -15.7102 7.73763 -93.2502
rradius 52.9212
rwrist -1.08131
rhand -19.2376 19.0049
rfingers 7.12502
rthumb 7.07581 -10.8569
lclavicle -2.76311e-014 -1.39149e-014
lhumerus -20.0925 5.01684 82.1971
lradius 28.3274
lwrist -25.7337
lhand -36.4377 -18.3989
lfingers 7.12502
lthumb -9.53216 11.3655
rfemur -5.48649 -3.11164 24.83
rtibia 48.8538
rfoot -33.2604 8.76738
rtoes -10.8217
lfemur -30.2313 11.2073 -0.5481
ltibia 33.2054
lfoot 12.4127 16.6235
ltoes -25.6978
52
root -17.0168 17.7355 21.7576 176.709 46.8277 -534.314
lowerback 2.79089 -0.885106 -0.509628
upperback 16.1245 0.536657 0.953788
thorax 16.3515 0.815269 1.63024
lowerneck 6.04819 3.26234 -1.16447
upperneck -10.445 4.17063 -2.11758
head -4.51739 2.26584 -0.754775
rclavicle -4.77083e-015 -1.07344e-014
rhumerus -15.7991 7.54615 -93.2568
rradius 53.2296
rwrist -1.16018
rhand -19.2151 19.0048
rfingers 7.12502
rthumb 7.09756 -10.8562
lclavicle -4.77083e-015 -1.07344e-014
lhumerus -19.8743 4.70462 82.079
lradius 28.8777
lwrist -25.2448
lhand -36.6689 -18.2969
lfingers 7.12502
lthumb -9.75518 11.4571
rfemur -5.50435 -3.18622 24.9158
rtibia 49.1037
rfoot -33.4832 8.83324
rtoes -11.1326
lfemur -30.2586 11.1294 -0.305708
ltibia 33.1038
lfoot 12.2966 16.1713
ltoes -25.4618
53
root -16.9872 17.7109 21.7052 176.952 46.7278 -534.144
lowerback 2.90956 -0.879529 -0.560675
upperback 16.2042 0.58074 0.886862
thorax 16.379 0.844657 1.59072
lowerneck 6.38188 3.26561 -1.15339
upperneck -10.7958 4.18017 -2.02499
head -4.7161 2.27058 -0.741839
rclavicle 1.10624e-013 -5.66536e-014
rhumerus -15.8466 7.4343 -93.2241
rradius 53.5179
rwrist -1.23959
rhand -19.1803 18.991
rfingers 7.12502
rthumb 7.13111 -10.8689
lclavicle 1.10624e-013 -5.66536e-014
lhumerus -19.6188 4.48632 81.9696
lradius 29.4152
lwrist -24.8321
lhand -36.8593 -18.2698
lfingers 7.12502
lthumb -9.93894 11.4755
rfemur -5.52547 -3.2485 24.9665
rtibia 49.3156
rfoot -33.6906 8.90592
rtoes -11.5398
lfemur -30.331 11.0463 -0.112131
ltibia 33.0474
lfoot 12.1542 15.6577
ltoes -25.4042
54
root -16.9569 17.6889 21.6529 177.182 46.6012 -533.969
lowerback 3.0499 -0.865833 -0.628355
upperback 16.2994 0.640317 0.839299
thorax 16.4128 0.879235 1.58453
lowerneck 6.61698 3.25683 -1.13287
upperneck -11.4625 4.16704 -1.98885
head -4.50013 2.2741 -0.672256
rclavicle -1.21259e-013 4.92986e-014
rhumerus -15.8728 7.26331 -93.1646
rradius 53.8077
rwrist -1.33326
rhand -19.1384 18.9735
rfingers 7.12502
rthumb 7.17153 -10.885
lclavicle -1.21259e-013 4.92986e-014
lhumerus -19.353 4.18142 81.9044
lradius 29.9968
lwrist -24.3755
lhand -37.1267 -18.1577
lfingers 7.12502
lthumb -10.1968 11.5752
rfemur -5.50815 -3.31459 25.0307
rtibia 49.4939
rfoot -33.8748 8.96479
rtoes -11.8581
lfemur -30.4098 10.9798 0.0667747
ltibia 33.023
lfoot 12.0307 15.0728
ltoes -25.2701
55
root -16.9272 17.6689 21.5979 177.456 46.4751 -533.75
lowerback 3.21785 -0.857072 -0.62194
upperback 16.3866 0.687375 0.796902
thorax 16.4177 0.917968 1.54059
lowerneck 6.89272 3.2424 -1.14072
upperneck -11.821 4.15338 -1.90682
head -4.65849 2.26865 -0.655755
rclavicle -2.5842e-015 -1.98785e-015
rhumerus -15.8845 7.09653 -93.1001
rradius 54.0727
rwrist -1.43256
rhand -19.1388 18.9596
rfingers 7.12502
rthumb 7.17115 -10.8989
lclavicle -2.5842e-015 -1.98785e-015
lhumerus -19.0598 3.93644 81.8344
lradius 30.5466
lwrist -23.9745
lhand -37.34 -18.2201
lfingers 7.12502
lthumb -10.4027 11.5026
rfemur -5.48436 -3.36364 25.1218
rtibia 49.6336
rfoot -34.0289 9.0507
rtoes -12.0074
lfemur -30.5062 10.8967 0.273163
ltibia 33.0341
lfoot 11.7703 14.5225
ltoes -25.0158
56
root -16.8986 17.6522 21.5421 177.712 46.318 -533.584
lowerback 3.37281 -0.862072 -0.650065
upperback 16.4958 0.722618 0.759446
thorax 16.4614 0.947227 1.52174
lowerneck 7.02563 3.22705 -1.21392
upperneck -12.1039 4.13951 -1.79384
head -4.77206 2.26335 -0.615239
rclavicle -5.18828e-014 2.54444e-014
rhumerus -15.8199 6.92974 -92.9902
rradius 54.3101
rwrist -1.49722
rhand -19.1187 18.9399
rfingers 7.12502
rthumb 7.19056 -10.9179
lclavicle -5.18828e-014 2.54444e-014
lhumerus -18.7132 3.64774 81.8095
lradius 31.1206
lwrist -23.4932
lhand -37.6041 -18.2084
lfingers 7.12502
lthumb -10.6574 11.5013
rfemur -5.46752 -3.44553 25.1665
rtibia 49.7405
rfoot -34.1526 9.14337
rtoes -12.2215
lfemur -30.6383 10.7891 0.412645
ltibia 33.0689
lfoot 11.5104 13.927
ltoes -25.0721
57
root -16.8696 17.6375 21.4839 177.974 46.1608 -533.419
lowerback 3.52254 -0.867208 -0.690382
upperback 16.5952 0.754408 0.735077
thorax 16.4958 0.970987 1.52345
lowerneck 7.21718 3.20474 -1.26194
upperneck -12.4172 4.11232 -1.72685
head -4.90356 2.25341 -0.593537
rclavicle 4.37326e-015 -1.35174e-014
rhumerus -15.777 6.80842 -92.879
rradius 54.5533
rwrist -1.62353
rhand -19.1448 18.8705
rfingers 7.12502
rthumb 7.16536 -10.9882
lclavicle 4.37326e-015 -1.35174e-014
lhumerus -18.3945 3.39352 81.7866
lradius 31.7103
lwrist -23.0911
lhand -37.8421 -18.1954
lfingers 7.12502
lthumb -10.887 11.5024
rfemur -5.43635 -3.52719 25.2067
rtibia 49.8177
rfoot -34.2833 9.16812
rtoes -12.5911
lfemur -30.7791 10.6755 0.544335
ltibia 33.1359
lfoot 11.085 13.3607
ltoes -25.1448
58
root -16.842 17.626 21.4248 178.227 46.0246 -533.257
lowerback 3.70752 -0.855924 -0.704357
upperback 16.6999 0.811798 0.699819
thorax 16.5138 1.01333 1.50047
lowerneck 7.40164 3.17654 -1.31989
upperneck -12.7517 4.0851 -1.60028
head -5.04214 2.24055 -0.55189
rclavicle 1.37161e-014 -1.82882e-014
rhumerus -15.6946 6.59138 -92.7912
rradius 54.7707
rwrist -1.7082
rhand -19.1362 18.7429
rfingers 7.12502
rthumb 7.17363 -11.1155
lclavicle 1.37161e-014 -1.82882e-014
lhumerus -18.0589 3.04834 81.7505
lradius 32.3384
lwrist -22.6336
lhand -38.0666 -18.1697
lfingers 7.12502
lthumb -11.1035 11.5166
rfemur -5.38334 -3.56958 25.2437
rtibia 49.8662
rfoot -34.4103 9.21085
rtoes -12.9729
lfemur -30.9039 10.5638 0.668283
ltibia 33.2329
lfoot 10.6764 12.7805
ltoes -25.4478
59
root -16.8155 17.6149 21.3635 178.515 45.8662 -533.095
lowerback 3.8576 -0.855851 -0.726427
upperback 16.7987 0.85078 0.674349
thorax 16.5475 1.04352 1.4914
lowerneck 7.57948 3.14848 -1.3407
upperneck -13.0639 4.05451 -1.53835
head -5.17082 2.228 -0.535348
rclavicle -3.37934e-015 3.18055e-015
rhumerus -15.589 6.40596 -92.6894
rradius 54.9463
rwrist -1.77989
rhand -19.1776 18.5993
rfingers 7.12502
rthumb 7.13373 -11.2605
lclavicle -3.37934e-015 3.18055e-015
lhumerus -17.7213 2.69865 81.7271
lradius 32.9565
lwrist -22.207
lhand -38.3285 -18.0878
lfingers 7.12502
lthumb -11.3561 11.5847
rfemur -5.36336 -3.63622 25.2728
rtibia 49.9018
rfoot -34.4885 9.28392
rtoes -13.1993
lfemur -31.0786 10.4519 0.763271
ltibia 33.3594
lfoot 10.2868 12.1785
ltoes -25.6574
60
root -16.7887 17.6062 21.3005 178.784 45.7203 -532.933
lowerback 4.02479 -0.855864 -0.756392
upperback 16.9069 0.891088 0.666109
thorax 16.5826 1.07259 1.50648
lowerneck 7.74674 3.12265 -1.41033
upperneck -13.3893 4.02453 -1.45846
head -5.30351 2.2173 -0.505249
rclavicle -1.68967e-014 -1.07344e-014
rhumerus -15.4742 6.23922 -92.5696
rradius 55.1215
rwrist -1.90716
rhand -19.2237 18.4191
rfingers 7.12502
rthumb 7.08926 -11.4422
lclavicle -1.68967e-014 -1.07344e-014
lhumerus -17.3989 2.38045 81.7341
lradius 33.6148
lwrist -21.7848
lhand -38.5757 -18.0022
lfingers 7.12502
lthumb -11.5945 11.6571
rfemur -5.30717 -3.68622 25.2997
rtibia 49.9182
rfoot -34.5682 9.34549
rtoes -13.4017
lfemur -31.2352 10.3642 0.84797
ltibia 33.5238
lfoot 9.95502 11.5825
ltoes -25.6053
